<mxfile host="app.diagrams.net" modified="2024-05-20T18:51:06.044Z" agent="Mozilla/5.0 (Windows NT 10.0; Win64; x64) AppleWebKit/537.36 (KHTML, like Gecko) Chrome/124.0.0.0 Safari/537.36" version="24.4.4" etag="07Fvpmfslq2ZmHsaaHiq" type="github">
  <diagram name="PÃ¡gina-1" id="6-k8TLEL8FpL3zlKBn_Q">
    <mxGraphModel>
      <root>
        <mxCell id="0" />
        <mxCell id="1" parent="0" />
      </root>
    </mxGraphModel>
  </diagram>
</mxfile>
